<svg width="303" height="55" viewBox="0 0 303 55" fill="none" xmlns="http://www.w3.org/2000/svg">
<path d="M75.6 37L71.22 29.05H69.99V37H64.86V15.94H73.47C75.13 15.94 76.54 16.23 77.7 16.81C78.88 17.39 79.76 18.19 80.34 19.21C80.92 20.21 81.21 21.33 81.21 22.57C81.21 23.97 80.81 25.22 80.01 26.32C79.23 27.42 78.07 28.2 76.53 28.66L81.39 37H75.6ZM69.99 25.42H73.17C74.11 25.42 74.81 25.19 75.27 24.73C75.75 24.27 75.99 23.62 75.99 22.78C75.99 21.98 75.75 21.35 75.27 20.89C74.81 20.43 74.11 20.2 73.17 20.2H69.99V25.42ZM100.21 28.36C100.21 28.84 100.18 29.34 100.12 29.86H88.5103C88.5903 30.9 88.9203 31.7 89.5003 32.26C90.1003 32.8 90.8303 33.07 91.6903 33.07C92.9703 33.07 93.8603 32.53 94.3603 31.45H99.8203C99.5403 32.55 99.0303 33.54 98.2903 34.42C97.5703 35.3 96.6603 35.99 95.5603 36.49C94.4603 36.99 93.2303 37.24 91.8703 37.24C90.2303 37.24 88.7703 36.89 87.4903 36.19C86.2103 35.49 85.2103 34.49 84.4903 33.19C83.7703 31.89 83.4103 30.37 83.4103 28.63C83.4103 26.89 83.7603 25.37 84.4603 24.07C85.1803 22.77 86.1803 21.77 87.4603 21.07C88.7403 20.37 90.2103 20.02 91.8703 20.02C93.4903 20.02 94.9303 20.36 96.1903 21.04C97.4503 21.72 98.4303 22.69 99.1303 23.95C99.8503 25.21 100.21 26.68 100.21 28.36ZM94.9603 27.01C94.9603 26.13 94.6603 25.43 94.0603 24.91C93.4603 24.39 92.7103 24.13 91.8103 24.13C90.9503 24.13 90.2203 24.38 89.6203 24.88C89.0403 25.38 88.6803 26.09 88.5403 27.01H94.9603ZM113.117 20.08C115.077 20.08 116.637 20.72 117.797 22C118.977 23.26 119.567 25 119.567 27.22V37H114.467V27.91C114.467 26.79 114.177 25.92 113.597 25.3C113.017 24.68 112.237 24.37 111.257 24.37C110.277 24.37 109.497 24.68 108.917 25.3C108.337 25.92 108.047 26.79 108.047 27.91V37H102.917V20.26H108.047V22.48C108.567 21.74 109.267 21.16 110.147 20.74C111.027 20.3 112.017 20.08 113.117 20.08ZM122.111 28.6C122.111 26.88 122.431 25.37 123.071 24.07C123.731 22.77 124.621 21.77 125.741 21.07C126.861 20.37 128.111 20.02 129.491 20.02C130.671 20.02 131.701 20.26 132.581 20.74C133.481 21.22 134.171 21.85 134.651 22.63V20.26H139.781V37H134.651V34.63C134.151 35.41 133.451 36.04 132.551 36.52C131.671 37 130.641 37.24 129.461 37.24C128.101 37.24 126.861 36.89 125.741 36.19C124.621 35.47 123.731 34.46 123.071 33.16C122.431 31.84 122.111 30.32 122.111 28.6ZM134.651 28.63C134.651 27.35 134.291 26.34 133.571 25.6C132.871 24.86 132.011 24.49 130.991 24.49C129.971 24.49 129.101 24.86 128.381 25.6C127.681 26.32 127.331 27.32 127.331 28.6C127.331 29.88 127.681 30.9 128.381 31.66C129.101 32.4 129.971 32.77 130.991 32.77C132.011 32.77 132.871 32.4 133.571 31.66C134.291 30.92 134.651 29.91 134.651 28.63ZM153.693 20.08C155.653 20.08 157.213 20.72 158.373 22C159.553 23.26 160.143 25 160.143 27.22V37H155.043V27.91C155.043 26.79 154.753 25.92 154.173 25.3C153.593 24.68 152.813 24.37 151.833 24.37C150.853 24.37 150.073 24.68 149.493 25.3C148.913 25.92 148.623 26.79 148.623 27.91V37H143.493V20.26H148.623V22.48C149.143 21.74 149.843 21.16 150.723 20.74C151.603 20.3 152.593 20.08 153.693 20.08ZM176.815 16.03C179.135 16.03 181.125 16.45 182.785 17.29C184.445 18.13 185.715 19.34 186.595 20.92C187.475 22.5 187.915 24.38 187.915 26.56C187.915 28.72 187.475 30.59 186.595 32.17C185.715 33.73 184.445 34.93 182.785 35.77C181.125 36.59 179.135 37 176.815 37H170.605V16.03H176.815ZM176.815 35.26C179.735 35.26 181.955 34.5 183.475 32.98C185.015 31.44 185.785 29.3 185.785 26.56C185.785 23.8 185.015 21.65 183.475 20.11C181.955 18.55 179.735 17.77 176.815 17.77H172.705V35.26H176.815ZM192.147 37.15C191.707 37.15 191.337 37 191.037 36.7C190.757 36.4 190.617 36.03 190.617 35.59C190.617 35.15 190.757 34.79 191.037 34.51C191.337 34.21 191.707 34.06 192.147 34.06C192.567 34.06 192.917 34.21 193.197 34.51C193.497 34.79 193.647 35.15 193.647 35.59C193.647 36.03 193.497 36.4 193.197 36.7C192.917 37 192.567 37.15 192.147 37.15ZM221.968 22.15C221.368 20.77 220.448 19.69 219.208 18.91C217.988 18.11 216.548 17.71 214.888 17.71C213.328 17.71 211.928 18.07 210.688 18.79C209.448 19.51 208.468 20.54 207.748 21.88C207.028 23.2 206.668 24.74 206.668 26.5C206.668 28.26 207.028 29.81 207.748 31.15C208.468 32.49 209.448 33.52 210.688 34.24C211.928 34.96 213.328 35.32 214.888 35.32C216.348 35.32 217.658 35.01 218.818 34.39C219.998 33.75 220.938 32.85 221.638 31.69C222.358 30.51 222.768 29.14 222.868 27.58H214.048V25.87H225.088V27.4C224.988 29.24 224.488 30.91 223.588 32.41C222.688 33.89 221.478 35.06 219.958 35.92C218.458 36.78 216.768 37.21 214.888 37.21C212.948 37.21 211.188 36.76 209.608 35.86C208.028 34.94 206.778 33.67 205.858 32.05C204.958 30.41 204.508 28.56 204.508 26.5C204.508 24.44 204.958 22.6 205.858 20.98C206.778 19.34 208.028 18.07 209.608 17.17C211.188 16.25 212.948 15.79 214.888 15.79C217.128 15.79 219.088 16.35 220.768 17.47C222.448 18.59 223.668 20.15 224.428 22.15H221.968ZM227.975 28.78C227.975 27.1 228.305 25.63 228.965 24.37C229.645 23.09 230.575 22.11 231.755 21.43C232.955 20.73 234.305 20.38 235.805 20.38C237.365 20.38 238.705 20.74 239.825 21.46C240.965 22.18 241.785 23.1 242.285 24.22V20.62H244.385V37H242.285V33.37C241.765 34.49 240.935 35.42 239.795 36.16C238.675 36.88 237.335 37.24 235.775 37.24C234.295 37.24 232.955 36.89 231.755 36.19C230.575 35.49 229.645 34.5 228.965 33.22C228.305 31.94 227.975 30.46 227.975 28.78ZM242.285 28.81C242.285 27.49 242.015 26.33 241.475 25.33C240.935 24.33 240.195 23.56 239.255 23.02C238.335 22.48 237.315 22.21 236.195 22.21C235.035 22.21 233.995 22.47 233.075 22.99C232.155 23.51 231.425 24.27 230.885 25.27C230.365 26.25 230.105 27.42 230.105 28.78C230.105 30.12 230.365 31.3 230.885 32.32C231.425 33.32 232.155 34.09 233.075 34.63C233.995 35.15 235.035 35.41 236.195 35.41C237.315 35.41 238.335 35.14 239.255 34.6C240.195 34.06 240.935 33.29 241.475 32.29C242.015 31.29 242.285 30.13 242.285 28.81ZM254.999 34.96L260.519 20.62H262.739L256.169 37H253.799L247.229 20.62H249.479L254.999 34.96ZM264.626 28.78C264.626 27.1 264.956 25.63 265.616 24.37C266.296 23.09 267.226 22.11 268.406 21.43C269.606 20.73 270.956 20.38 272.456 20.38C274.016 20.38 275.356 20.74 276.476 21.46C277.616 22.18 278.436 23.1 278.936 24.22V20.62H281.036V37H278.936V33.37C278.416 34.49 277.586 35.42 276.446 36.16C275.326 36.88 273.986 37.24 272.426 37.24C270.946 37.24 269.606 36.89 268.406 36.19C267.226 35.49 266.296 34.5 265.616 33.22C264.956 31.94 264.626 30.46 264.626 28.78ZM278.936 28.81C278.936 27.49 278.666 26.33 278.126 25.33C277.586 24.33 276.846 23.56 275.906 23.02C274.986 22.48 273.966 22.21 272.846 22.21C271.686 22.21 270.646 22.47 269.726 22.99C268.806 23.51 268.076 24.27 267.536 25.27C267.016 26.25 266.756 27.42 266.756 28.78C266.756 30.12 267.016 31.3 267.536 32.32C268.076 33.32 268.806 34.09 269.726 34.63C270.646 35.15 271.686 35.41 272.846 35.41C273.966 35.41 274.986 35.14 275.906 34.6C276.846 34.06 277.586 33.29 278.126 32.29C278.666 31.29 278.936 30.13 278.936 28.81Z" fill="white"/>
<circle cx="27.5" cy="27.5" r="27.5" fill="#007CED"/>
<path d="M38.1055 21.5C38.1055 20.7025 37.9744 20.0075 37.7124 19.415C37.4504 18.8112 37.0801 18.2928 36.6016 17.8599C36.1344 17.4269 35.5705 17.0737 34.9097 16.8003C34.2489 16.5155 33.5254 16.2933 32.7393 16.1338C31.9531 15.9629 31.11 15.849 30.21 15.792C29.3213 15.7236 28.4041 15.6895 27.4585 15.6895C27.1965 15.6895 26.9572 15.6895 26.7407 15.6895C26.5243 15.6895 26.3192 15.7008 26.1255 15.7236L25.8179 27.3447C26.2508 27.4359 26.7236 27.4985 27.2363 27.5327C27.749 27.5669 28.2788 27.584 28.8257 27.584C29.4979 27.584 30.1929 27.5441 30.9106 27.4644C31.6284 27.3846 32.3291 27.2536 33.0127 27.0713C33.7077 26.889 34.3628 26.6497 34.978 26.3535C35.5933 26.0459 36.1287 25.6699 36.5845 25.2256C37.0516 24.7699 37.4219 24.2344 37.6953 23.6191C37.9688 23.0039 38.1055 22.2975 38.1055 21.5ZM40.9424 32.3179C40.9424 32.3407 40.9481 32.4033 40.9595 32.5059C40.9709 32.597 40.9766 32.7337 40.9766 32.916C40.9766 33.8389 40.8341 34.6934 40.5493 35.4795C40.2759 36.2656 39.8828 36.9435 39.3701 37.5132C38.8574 38.0715 38.2365 38.5101 37.5073 38.8291C36.7782 39.1481 35.9635 39.3076 35.0635 39.3076H35.0122C34.1805 39.2848 33.4456 39.1481 32.8076 38.8975C32.181 38.6468 31.6284 38.3164 31.1499 37.9062C30.6828 37.4847 30.2897 36.9948 29.9707 36.4365C29.6517 35.8783 29.3953 35.2801 29.2017 34.6421C29.008 33.9927 28.8656 33.3205 28.7744 32.6255C28.6947 31.9305 28.6548 31.2412 28.6548 30.5576C28.6548 30.3525 28.6605 30.1532 28.6719 29.9595C28.6833 29.7544 28.689 29.5721 28.689 29.4126C28.1763 29.4126 27.675 29.3898 27.1851 29.3442C26.7065 29.2987 26.2394 29.2417 25.7837 29.1733L25.5273 38.0259C25.5273 38.2993 25.4362 38.5158 25.2539 38.6753C25.083 38.8234 24.8722 38.8975 24.6216 38.8975C24.6102 38.8975 24.3766 38.9032 23.9209 38.9146C23.4766 38.9146 22.9012 38.9259 22.1948 38.9487C21.4884 38.9715 20.708 39.0114 19.8535 39.0684C18.999 39.1253 18.1616 39.2051 17.3413 39.3076H17.2388C16.9767 39.3076 16.7603 39.2165 16.5894 39.0342C16.4185 38.8633 16.333 38.6639 16.333 38.436C16.333 38.2082 16.4014 38.0088 16.5381 37.8379C16.6862 37.667 16.8742 37.5645 17.1021 37.5303C17.5236 37.4733 17.9508 37.4277 18.3838 37.3936C18.8281 37.3594 19.2611 37.3252 19.6826 37.291L20.0757 16.2192C19.2326 16.356 18.5946 16.4756 18.1616 16.5781C17.7287 16.6807 17.5008 16.7319 17.478 16.7319C17.3983 16.7889 17.3185 16.8174 17.2388 16.8174C16.9767 16.8174 16.7603 16.7262 16.5894 16.5439C16.4185 16.3617 16.333 16.1452 16.333 15.8945C16.333 15.7008 16.39 15.5299 16.5039 15.3818C16.6178 15.2223 16.7716 15.1141 16.9653 15.0571C16.9995 15.0457 17.2388 14.9774 17.6831 14.8521C18.1274 14.7267 18.7826 14.5957 19.6484 14.459C20.5257 14.3223 21.6081 14.1969 22.8955 14.083C24.1943 13.9691 25.7153 13.9121 27.4585 13.9121C28.575 13.9691 29.6517 14.0488 30.6885 14.1514C31.7367 14.2539 32.7222 14.4134 33.645 14.6299C34.5679 14.835 35.411 15.1141 36.1743 15.4673C36.9377 15.8091 37.5928 16.2534 38.1396 16.8003C38.6979 17.3472 39.1252 18.008 39.4214 18.7827C39.729 19.5461 39.8828 20.4518 39.8828 21.5C39.8828 22.3317 39.7518 23.1178 39.4897 23.8584C39.2391 24.5876 38.8859 25.2541 38.4302 25.8579C37.9744 26.4504 37.4219 26.9688 36.7725 27.4131C36.1344 27.846 35.4338 28.1878 34.6704 28.4385C34.6476 28.7005 34.6305 28.9683 34.6191 29.2417C34.6077 29.5151 34.6021 29.7943 34.6021 30.0791C34.6021 30.3184 34.6077 30.6545 34.6191 31.0874C34.6305 31.5203 34.659 31.9932 34.7046 32.5059C34.7502 33.0186 34.8185 33.5426 34.9097 34.0781C35.0122 34.6136 35.1432 35.1035 35.3027 35.5479C35.4736 35.9808 35.6844 36.3397 35.9351 36.6245C36.1857 36.8979 36.4876 37.0347 36.8408 37.0347C37.2965 37.0347 37.6725 36.8809 37.9688 36.5732C38.265 36.2656 38.5042 35.8953 38.6865 35.4624C38.8688 35.0181 38.9941 34.5623 39.0625 34.0952C39.1423 33.6281 39.1821 33.235 39.1821 32.916C39.1821 32.7907 39.1764 32.6882 39.165 32.6084C39.1536 32.5286 39.1479 32.4546 39.1479 32.3862C39.1479 32.1242 39.2391 31.9134 39.4214 31.7539C39.6151 31.5944 39.8258 31.5146 40.0537 31.5146C40.2816 31.5146 40.481 31.5944 40.6519 31.7539C40.8228 31.902 40.9196 32.09 40.9424 32.3179Z" fill="white"/>
</svg>
